# xmcd CD database file
#
# Track frame offsets:
#	150
#	18138
#	35593
#	48448
#	69286
#	84682
#	99136
#	119152
#	136558
#	152863
#	174307
#	188041
#	204248
#	221495
#
# Disc length: 3124 seconds
#
# Revision: 1
# Processed by: cddbd v1.5.2PL0 Copyright (c) Steve Scherf et al.
# Submitted via: CDex 1.50Beta7
#
DISCID=b10c320e
DTITLE=Gunter Gabriel - Komm unter meine Decke
DYEAR=1993
DGENRE=Country
TTITLE0=Intercity Linie Nummer 4
TTITLE1=Komm unter meine Decke
TTITLE2=Hey Boss, ich brauch mehr Geld
TTITLE3=Er ist ein Kerl
TTITLE4=Deutschland ist
TTITLE5=Mädchen ab 30
TTITLE6=Ohne Moos nichts los
TTITLE7=Ich werd gesucht in Bremerhafen
TTITLE8=Reinhausen, du darfst nicht untergeh´n
TTITLE9=Ich bin CB-Funker
TTITLE10=Franky´s Curry Station
TTITLE11=Willy Klein, der Fernsehmann
TTITLE12=Mit dem Hammer in der Hand
TTITLE13=Papa trinkt Bier
EXTD=YEAR: 1993
EXTT0=
EXTT1=
EXTT2=
EXTT3=
EXTT4=
EXTT5=
EXTT6=
EXTT7=
EXTT8=
EXTT9=
EXTT10=
EXTT11=
EXTT12=
EXTT13=
PLAYORDER=
